<?xml version="1.0" standalone="no"?>
<!DOCTYPE svg PUBLIC "-//W3C//DTD SVG 20010904//EN"
 "http://www.w3.org/TR/2001/REC-SVG-20010904/DTD/svg10.dtd">
<svg version="1.0" xmlns="http://www.w3.org/2000/svg"
 width="512.000000pt" height="512.000000pt" viewBox="0 0 512.000000 512.000000"
 preserveAspectRatio="xMidYMid meet">
<metadata>
Created by potrace 1.11, written by Peter Selinger 2001-2013
</metadata>
<g transform="translate(0.000000,512.000000) scale(0.100000,-0.100000)"
fill="#000000" stroke="none">
<path d="M1080 4904 c-193 -41 -286 -90 -410 -214 -126 -126 -174 -220 -214
-414 -26 -123 -17 -225 34 -389 55 -178 251 -384 420 -444 l50 -18 0 -257 0
-258 -137 0 c-246 0 -370 -55 -460 -201 -53 -85 -53 -89 -53 -1184 0 -883 2
-1023 16 -1082 33 -144 134 -244 286 -284 70 -18 143 -19 1953 -19 1810 0
1883 1 1953 19 153 40 253 139 286 284 14 60 16 194 16 1082 0 1114 1 1100
-60 1195 -89 139 -211 190 -457 190 l-143 0 0 258 0 257 50 18 c169 60 365
266 420 444 51 164 60 266 34 389 -40 194 -88 288 -214 414 -126 126 -220 174
-414 214 -66 14 -246 16 -1483 15 -1169 0 -1419 -3 -1473 -15z m2953 -199
c285 -60 481 -345 439 -638 -25 -174 -144 -343 -299 -420 -64 -33 -93 -42
-185 -62 l-28 -5 0 -335 0 -335 -1400 0 -1400 0 0 335 0 335 -27 5 c-93 20
-122 29 -186 62 -210 105 -333 348 -299 586 32 225 216 424 435 472 95 21
2852 21 2950 0z m448 -2006 c53 -18 99 -58 120 -103 18 -39 19 -86 19 -1071 0
-985 -1 -1032 -19 -1071 -21 -45 -67 -85 -120 -103 -49 -16 -3783 -16 -3832 0
-53 18 -99 58 -120 103 -18 39 -19 86 -19 1071 0 985 1 1032 19 1071 20 44 66
85 116 102 44 15 3790 16 3836 1z"/>
<path d="M1662 4259 c-73 -37 -107 -111 -89 -197 24 -118 182 -170 273 -89 47
40 64 76 64 133 0 128 -134 211 -248 153z"/>
<path d="M3335 4266 c-42 -18 -82 -68 -96 -118 -31 -117 86 -236 205 -208 54
12 87 38 114 90 28 55 28 101 1 157 -38 79 -141 115 -224 79z"/>
<path d="M2361 3901 c-21 -14 -8 -94 23 -142 32 -48 111 -89 171 -89 61 0 139
41 171 89 35 53 46 137 19 147 -26 10 -49 -8 -56 -46 -4 -18 -12 -43 -19 -55
-15 -29 -80 -65 -115 -65 -62 0 -135 68 -135 127 0 35 -30 52 -59 34z"/>
<path d="M3600 2220 l0 -240 -145 0 -145 0 0 -185 0 -185 145 0 145 0 0 -510
0 -510 145 0 145 0 0 510 0 510 140 0 140 0 0 185 0 185 -140 0 -140 0 0 240
0 240 -145 0 -145 0 0 -240z m520 -425 l0 -135 -380 0 -380 0 0 135 0 135 380
0 380 0 0 -135z"/>
<path d="M903 2054 c-110 -39 -229 -204 -181 -252 20 -20 32 -14 99 52 95 95
149 99 149 12 0 -51 -20 -208 -54 -419 -33 -203 -34 -270 -4 -291 31 -22 74
-20 98 4 11 11 20 23 20 28 0 31 55 315 75 390 28 105 80 223 120 276 55 73
138 99 169 54 27 -38 23 -82 -40 -437 -40 -228 -43 -282 -14 -311 25 -25 71
-26 99 -2 18 14 27 46 51 187 16 94 41 210 55 259 66 226 167 356 249 318 45
-20 43 -53 -19 -345 -39 -188 -44 -272 -16 -332 22 -49 48 -73 98 -91 120 -42
231 13 333 168 l58 89 22 -28 c23 -29 50 -87 50 -107 0 -7 -21 -11 -56 -11
-44 0 -59 -4 -70 -19 -59 -82 62 -159 168 -107 25 11 58 21 74 21 17 0 52 11
79 24 l48 25 19 -24 c38 -49 128 -56 182 -14 18 14 26 16 26 7 0 -7 -42 -50
-93 -94 -133 -116 -197 -217 -197 -314 0 -107 124 -155 216 -85 70 53 122 178
178 426 4 18 34 45 109 97 57 39 109 78 116 86 18 21 10 90 -10 94 -9 2 -53
-25 -99 -58 -45 -34 -84 -60 -85 -58 -2 2 7 75 21 162 28 178 26 186 -37 186
-28 0 -41 5 -49 20 -13 25 -49 26 -114 4 -95 -32 -189 -159 -203 -272 -5 -42
-12 -58 -35 -77 -16 -14 -33 -25 -37 -25 -5 0 -11 17 -15 39 -3 22 -29 74 -61
122 -30 46 -55 89 -55 96 0 7 9 35 20 64 24 59 16 79 -31 79 -57 0 -73 -17
-127 -133 -107 -229 -213 -317 -289 -241 -24 24 -25 30 -20 92 4 37 23 141 43
232 46 206 51 325 17 381 -30 48 -65 64 -137 64 -48 0 -71 -6 -106 -27 -61
-35 -84 -62 -130 -149 l-39 -74 -1 60 c-3 139 -74 211 -187 190 -92 -16 -165
-85 -223 -208 l-37 -78 5 98 c4 79 1 106 -12 131 -30 59 -98 76 -183 46z
m1931 -526 c-42 -227 -55 -263 -102 -275 -19 -4 -30 0 -44 17 -57 71 44 290
134 290 14 0 16 -6 12 -32z m-74 -513 c0 -3 -13 -46 -30 -97 -35 -110 -77
-170 -107 -152 -24 16 -20 75 9 123 39 63 128 151 128 126z"/>
</g>
</svg>
