<?xml version="1.0" standalone="no"?>
<!DOCTYPE svg PUBLIC "-//W3C//DTD SVG 20010904//EN"
 "http://www.w3.org/TR/2001/REC-SVG-20010904/DTD/svg10.dtd">
<svg version="1.0" xmlns="http://www.w3.org/2000/svg"
 width="512.000000pt" height="512.000000pt" viewBox="0 0 512.000000 512.000000"
 preserveAspectRatio="xMidYMid meet">
<metadata>
Created by potrace 1.11, written by Peter Selinger 2001-2013
</metadata>
<g transform="translate(0.000000,512.000000) scale(0.100000,-0.100000)"
fill="#000000" stroke="none">
<path d="M720 4980 c-261 -33 -495 -244 -567 -510 -17 -61 -18 -177 -18 -1910
0 -1733 1 -1849 18 -1910 64 -238 249 -424 493 -497 55 -17 171 -18 1844 -21
1200 -2 1817 1 1883 8 304 32 560 271 598 558 6 50 9 713 7 1917 l-3 1840 -24
69 c-14 38 -46 101 -71 140 -118 180 -295 293 -497 316 -101 11 -3574 12
-3663 0z m3793 -53 c201 -71 363 -239 421 -436 14 -49 16 -242 16 -1931 0
-1689 -2 -1882 -16 -1931 -58 -197 -221 -366 -419 -436 l-80 -28 -1875 0
-1875 0 -80 28 c-193 68 -343 219 -412 414 l-28 78 0 1875 0 1875 28 78 c48
137 139 255 258 337 66 46 111 65 204 90 67 18 141 19 1925 17 l1855 -2 78
-28z"/>
<path d="M2421 4499 c-119 -129 -128 -149 -87 -189 44 -41 71 -31 151 56 l71
78 75 -78 c82 -86 112 -97 151 -58 44 44 37 57 -165 275 -56 60 -69 55 -196
-84z"/>
<path d="M2445 4053 c-89 -14 -236 -58 -299 -90 -238 -119 -413 -332 -484
-591 l-27 -97 0 -715 0 -715 27 -97 c90 -326 336 -570 660 -655 147 -39 319
-39 466 0 324 85 570 329 660 655 l27 97 0 715 0 715 -27 97 c-110 400 -455
671 -868 683 -58 2 -118 1 -135 -2z m310 -158 c210 -56 403 -214 500 -410 84
-170 80 -129 80 -925 0 -796 4 -755 -80 -925 -98 -198 -288 -353 -505 -411
-90 -25 -300 -25 -390 0 -219 59 -406 211 -504 411 -85 170 -81 128 -81 925 0
797 -4 755 81 925 112 228 331 387 589 429 56 9 250 -3 310 -19z"/>
<path d="M2501 3414 l-31 -26 0 -218 0 -217 26 -27 c29 -28 70 -34 107 -14 45
23 46 33 47 260 l0 216 -31 26 c-17 15 -43 26 -59 26 -16 0 -42 -11 -59 -26z"/>
<path d="M2364 810 c-28 -11 -46 -36 -46 -65 0 -23 27 -57 185 -227 56 -61 69
-56 196 83 119 129 128 149 87 189 -45 41 -71 31 -151 -56 l-71 -78 -72 76
c-75 79 -94 90 -128 78z"/>
</g>
</svg>
