<?xml version="1.0" standalone="no"?>
<!DOCTYPE svg PUBLIC "-//W3C//DTD SVG 20010904//EN"
 "http://www.w3.org/TR/2001/REC-SVG-20010904/DTD/svg10.dtd">
<svg version="1.0" xmlns="http://www.w3.org/2000/svg"
 width="512.000000pt" height="512.000000pt" viewBox="0 0 512.000000 512.000000"
 preserveAspectRatio="xMidYMid meet">
<metadata>
Created by potrace 1.11, written by Peter Selinger 2001-2013
</metadata>
<g transform="translate(0.000000,512.000000) scale(0.100000,-0.100000)"
fill="#000000" stroke="none">
<path d="M555 5104 c-210 -41 -415 -213 -504 -422 -53 -126 -51 -55 -51 -2122
0 -1625 2 -1930 14 -1993 53 -276 277 -500 553 -553 112 -21 3874 -21 3986 0
276 53 500 277 553 553 21 112 21 3874 0 3986 -52 272 -281 502 -549 552 -113
22 -3893 21 -4002 -1z m3986 -410 c66 -31 114 -78 146 -142 l28 -57 0 -1935 0
-1935 -21 -46 c-31 -66 -78 -114 -142 -146 l-57 -28 -1935 0 -1935 0 -57 28
c-64 32 -111 80 -142 146 l-21 46 -3 1905 c-2 1357 0 1920 8 1956 22 101 93
181 193 216 49 17 149 17 1972 15 l1920 -2 46 -21z"/>
<path d="M1176 3634 c-220 -53 -386 -265 -386 -494 0 -277 233 -510 510 -510
232 0 442 166 495 391 87 371 -247 703 -619 613z"/>
<path d="M3163 3117 c-111 -166 -343 -512 -516 -769 l-314 -468 -333 290
c-184 160 -337 287 -341 283 -4 -5 -181 -226 -394 -493 l-386 -485 1712 -3
c942 -1 1714 0 1716 2 5 4 -923 1926 -935 1938 -4 3 -98 -130 -209 -295z"/>
</g>
</svg>
