<?xml version="1.0" standalone="no"?>
<!DOCTYPE svg PUBLIC "-//W3C//DTD SVG 20010904//EN"
 "http://www.w3.org/TR/2001/REC-SVG-20010904/DTD/svg10.dtd">
<svg version="1.0" xmlns="http://www.w3.org/2000/svg"
 width="512.000000pt" height="512.000000pt" viewBox="0 0 512.000000 512.000000"
 preserveAspectRatio="xMidYMid meet">
<metadata>
Created by potrace 1.11, written by Peter Selinger 2001-2013
</metadata>
<g transform="translate(0.000000,512.000000) scale(0.100000,-0.100000)"
fill="#000000" stroke="none">
<path d="M2301 3754 c-78 -16 -85 -22 -90 -76 -1 -5 -7 -8 -15 -8 -8 0 -21 -6
-28 -12 -7 -7 -20 -14 -27 -16 -12 -3 -12 0 -1 13 7 8 10 18 7 21 -10 11 -101
11 -114 1 -9 -7 -13 -5 -13 7 0 21 -7 20 -60 -10 -103 -59 -167 -92 -195 -99
-16 -5 -37 -10 -45 -12 -20 -5 -109 -4 -139 2 -13 2 -35 12 -49 21 -13 9 -38
20 -54 25 -26 7 -29 6 -26 -9 4 -15 -4 -17 -71 -16 -96 1 -236 -35 -376 -95
-306 -132 -488 -270 -654 -494 -57 -77 -151 -222 -151 -232 0 -2 -17 -38 -37
-82 -58 -123 -82 -236 -79 -372 2 -88 6 -116 17 -125 24 -18 51 -64 44 -75 -6
-10 63 -138 93 -173 8 -10 19 -15 25 -11 5 3 15 0 21 -8 41 -54 131 -79 164
-45 16 18 16 18 0 13 -13 -5 -24 7 -47 51 -16 31 -59 102 -95 156 -38 56 -73
123 -82 154 -19 63 -14 144 10 193 9 18 16 46 16 63 0 46 35 166 70 237 34 71
64 113 115 160 20 19 51 54 68 79 17 25 46 61 63 80 18 19 41 44 51 56 38 44
152 139 245 206 78 55 120 77 210 109 175 62 231 80 240 77 4 -2 -37 -61 -90
-133 -187 -248 -282 -407 -318 -530 -67 -233 -64 -363 13 -506 27 -52 92 -99
135 -99 43 0 193 156 201 208 11 70 180 387 260 487 4 5 38 51 75 100 37 50
75 99 84 110 9 11 51 63 94 115 132 160 296 310 416 378 41 24 65 31 108 31
30 0 66 3 80 6 60 14 182 13 225 -2 50 -17 51 -33 2 -34 -28 0 -37 -8 -76 -69
-24 -37 -57 -83 -72 -101 -44 -51 -118 -164 -150 -228 -44 -89 -108 -283 -125
-381 -3 -14 -7 -32 -9 -40 -9 -33 -19 -149 -19 -225 1 -193 34 -284 123 -330
38 -19 66 -15 104 16 32 24 37 45 8 29 -40 -21 -91 -12 -124 22 -24 24 -28 33
-17 35 13 3 16 21 15 97 0 74 -3 92 -12 84 -10 -8 -12 3 -7 53 6 69 14 92 14
42 0 -17 6 -36 13 -42 11 -9 14 3 14 63 1 100 29 157 57 114 7 -12 6 -30 -5
-65 -25 -79 -2 -104 30 -32 19 42 21 81 7 132 -7 23 -5 27 11 27 26 0 57 35
49 55 -3 8 -17 20 -32 25 -34 13 -28 18 25 25 24 3 51 10 61 15 9 5 20 6 24 3
3 -3 6 -2 6 4 0 19 -11 20 -72 8 -68 -15 -95 -11 -78 10 7 9 23 12 44 8 45 -7
55 13 11 21 -34 7 -51 27 -18 22 22 -3 140 21 161 33 14 8 11 12 -20 25 -21 9
-44 16 -52 16 -22 0 -70 20 -63 26 3 3 29 8 58 10 63 6 111 23 103 35 -3 5 -9
7 -12 5 -4 -2 -38 -7 -75 -10 -62 -6 -68 -5 -65 11 3 15 12 18 53 15 36 -1 46
1 35 8 -8 5 -24 10 -35 10 -13 0 -16 3 -8 11 6 6 45 11 86 11 61 0 80 4 93 19
19 21 19 21 -16 24 -14 1 -28 -2 -31 -7 -3 -5 -36 -11 -73 -13 -63 -3 -66 -2
-66 20 0 20 3 21 45 15 30 -5 45 -3 45 4 0 7 27 11 78 11 42 -1 85 1 95 3 26
7 20 21 -8 17 -29 -3 -30 -2 -9 30 13 21 24 24 63 24 31 -1 70 8 120 30 40 17
89 31 110 31 l36 -1 -27 -22 c-15 -12 -54 -30 -85 -40 -78 -24 -132 -49 -137
-64 -10 -24 36 -14 106 22 37 20 68 32 68 27 0 -22 -44 -61 -97 -87 -32 -16
-70 -34 -84 -41 -14 -8 -29 -11 -33 -7 -3 3 -6 1 -6 -5 0 -7 -6 -12 -13 -12
-14 0 -55 -39 -44 -41 44 -9 107 5 107 23 0 6 -8 7 -17 3 -11 -4 -14 -3 -8 3
16 15 95 43 95 33 0 -13 -43 -56 -75 -73 -17 -9 -66 -33 -109 -54 -65 -30 -76
-38 -62 -46 10 -5 40 -7 67 -4 65 8 57 -7 -25 -44 -33 -16 -71 -37 -84 -48
-23 -20 -23 -21 -4 -31 13 -7 31 -7 52 -1 33 9 50 6 50 -10 0 -4 -29 -27 -65
-49 -90 -57 -113 -104 -50 -99 19 1 37 -1 40 -4 3 -3 -13 -21 -37 -39 -62 -49
-68 -55 -68 -78 0 -33 13 -31 40 5 25 33 48 49 58 39 5 -4 -21 -58 -82 -171
-17 -33 -26 -62 -24 -80 l4 -29 11 26 c6 14 17 32 25 40 81 85 154 214 209
370 35 103 83 197 119 237 9 9 34 46 55 82 22 36 60 86 85 111 25 25 82 86
126 135 45 49 101 103 124 119 23 17 59 46 80 65 21 19 45 41 54 48 16 12 12
42 -6 42 -6 0 -32 -20 -59 -44 -57 -51 -149 -85 -249 -90 -93 -6 -149 9 -201
52 -25 20 -71 55 -102 76 -45 31 -59 37 -71 27 -8 -7 -17 -8 -20 -3 -5 8 -93
31 -141 38 -11 1 -20 3 -20 4 0 9 -164 4 -214 -6z m419 -80 c0 -8 -7 -14 -15
-14 -17 0 -18 2 -9 24 7 18 24 12 24 -10z m62 -66 c-16 -16 -35 3 -26 26 6 16
8 16 22 2 13 -12 14 -18 4 -28z m136 -94 c19 -2 42 -10 50 -18 26 -26 -32 -32
-110 -11 -5 2 -10 3 -13 4 -3 0 -1 10 5 21 6 11 16 18 21 14 6 -3 27 -8 47
-10z m-1091 -45 c-6 -10 -13 -15 -15 -9 -6 17 7 42 18 35 6 -4 5 -13 -3 -26z
m1268 21 c-3 -5 -14 -10 -23 -10 -15 0 -15 2 -2 10 20 13 33 13 25 0z m-245
-34 c35 -13 35 -13 11 -25 -30 -17 -91 -24 -91 -11 0 5 4 10 9 10 5 0 13 9 16
20 7 23 8 23 55 6z m-1122 -30 c-14 -22 -25 -30 -30 -23 -4 6 -4 15 -2 19 3 4
-1 8 -8 8 -16 1 32 29 50 30 8 0 4 -12 -10 -34z m-63 -41 c1 -56 -13 -120 -23
-110 -4 4 -9 32 -12 63 l-5 57 -95 1 c-122 1 -120 1 -86 23 24 16 45 19 125
18 l96 -2 0 -50z m-295 25 c-13 -11 -26 -18 -28 -15 -6 6 28 34 42 35 5 0 -1
-9 -14 -20z m383 -7 c-11 -32 -33 -59 -33 -42 0 14 27 59 35 59 3 0 2 -8 -2
-17z m-149 -96 c-4 -55 -40 -154 -52 -142 -6 5 -10 34 -11 74 -1 22 -3 23 -68
17 -38 -4 -102 -9 -143 -12 l-75 -4 29 24 c36 30 51 33 153 31 60 0 79 3 76
12 -6 15 -36 20 -94 13 -54 -7 -82 0 -71 17 15 23 58 32 159 31 l101 -1 -4
-60z m-302 31 c-7 -7 -12 -8 -12 -2 0 14 12 26 19 19 2 -3 -1 -11 -7 -17z
m1132 -62 c-3 -9 -10 -16 -15 -16 -6 0 -5 9 1 21 13 24 24 20 14 -5z m-918
-107 c5 -47 2 -57 -16 -74 l-22 -20 3 27 c2 15 0 28 -5 30 -11 3 -22 -35 -21
-72 0 -15 -10 -34 -25 -47 -28 -24 -20 -44 10 -25 18 11 19 10 8 -16 -23 -53
-43 -64 -43 -24 0 9 -7 17 -15 17 -20 0 -26 -53 -7 -61 12 -4 12 -10 3 -30 -6
-13 -14 -24 -18 -24 -5 0 -8 -9 -8 -19 0 -11 -3 -21 -7 -23 -5 -1 -22 -32 -40
-68 -89 -181 -103 -214 -94 -223 14 -14 -51 -138 -94 -182 -27 -26 -44 -35
-70 -35 -34 0 -54 14 -35 25 17 11 11 33 -8 28 -51 -13 -126 117 -88 154 6 6
178 5 184 -2 9 -9 -1 -13 -47 -20 -62 -9 -88 -21 -102 -46 -10 -20 -9 -21 7
-14 11 4 51 18 91 31 40 12 82 28 93 34 21 11 21 12 3 25 -11 9 -44 15 -83 15
-80 1 -62 15 29 24 39 3 71 12 80 21 15 15 14 16 -9 11 -23 -5 -92 -13 -182
-22 -21 -2 -38 0 -38 6 0 9 48 16 74 11 5 -1 4 4 -2 12 -9 10 -9 14 1 14 13 1
86 13 115 18 9 2 26 4 37 5 20 1 20 1 1 15 -18 13 -49 14 -101 1 -84 -22 -102
-26 -113 -26 -7 0 -10 5 -7 10 3 6 15 10 26 10 11 0 17 5 14 10 -8 13 26 25
95 36 30 4 60 8 65 9 6 1 20 3 33 3 13 1 21 6 17 11 -7 12 -118 6 -165 -8 -52
-16 -70 -14 -70 9 0 15 7 20 24 20 14 0 28 4 31 10 7 11 61 26 125 34 25 3 54
8 65 10 11 2 26 5 33 5 6 1 12 6 12 12 0 11 -78 8 -140 -6 -42 -9 -130 -17
-130 -12 0 24 16 37 45 37 18 0 35 4 37 10 2 5 26 12 53 15 115 12 180 29 170
46 -6 9 -81 2 -135 -12 -60 -16 -140 -22 -140 -11 0 6 13 22 30 35 33 28 94
43 210 52 40 4 83 11 94 17 19 11 20 12 2 18 -29 10 -88 3 -198 -24 -66 -15
-73 -9 -49 42 18 36 26 39 126 47 38 3 92 11 120 17 l50 11 -34 8 c-19 4 -45
5 -58 3 -12 -2 -35 -6 -50 -9 -79 -15 -103 -15 -103 -2 0 32 46 55 126 62 93
9 134 16 134 25 0 15 -52 16 -128 2 -89 -16 -99 -13 -73 17 16 19 32 23 93 27
40 3 98 8 128 13 30 4 58 5 63 1 4 -3 10 -31 13 -61z m870 3 c-20 -20 -22 -1
-3 28 10 18 12 18 15 4 2 -9 -3 -24 -12 -32z m394 -67 c-7 -8 -27 -15 -44 -14
l-31 0 40 18 c44 20 54 19 35 -4z m-414 -11 c-3 -9 -6 -20 -6 -25 0 -5 -4 -9
-10 -9 -5 0 -10 11 -10 25 0 16 6 25 16 25 11 0 14 -5 10 -16z m129 -16 c-16
-10 -96 -18 -107 -11 -4 2 -3 12 3 21 10 15 18 16 65 8 36 -7 49 -13 39 -18z
m234 -72 c-11 -23 -35 -36 -69 -36 -10 0 59 53 77 59 2 1 -2 -10 -8 -23z
m-355 -112 c24 -9 19 -21 -10 -28 -31 -8 -37 -5 -28 18 7 17 14 19 38 10z
m-101 -56 c-3 -16 -9 -28 -14 -28 -8 0 -4 33 6 51 11 16 14 7 8 -23z m387 25
c-1 -19 -30 -44 -56 -49 -24 -4 -26 -3 -14 11 10 12 43 34 68 44 1 1 2 -2 2
-6z"/>
<path d="M1005 2650 c3 -5 12 -10 20 -10 8 0 17 5 20 10 4 6 -5 10 -20 10 -15
0 -24 -4 -20 -10z"/>
<path d="M3514 3677 c-3 -8 -18 -17 -35 -21 -20 -4 -29 -11 -29 -25 0 -11 -2
-26 -5 -33 -4 -10 3 -15 22 -15 85 -3 152 -13 186 -28 21 -9 59 -17 83 -19 48
-3 142 11 159 23 6 4 33 9 60 10 65 4 86 19 51 38 -34 18 -181 52 -252 59 -33
3 -72 7 -89 9 -139 17 -145 17 -151 2z m244 -99 c28 -1 52 -6 52 -11 0 -12
-121 0 -134 14 -8 8 -6 10 9 5 11 -3 44 -7 73 -8z"/>
<path d="M4029 3533 c-1 -5 -1 -11 0 -15 0 -4 -23 -20 -52 -37 -213 -122 -475
-483 -589 -811 -16 -47 -31 -92 -33 -100 -2 -8 -13 -51 -24 -95 -24 -92 -25
-117 -10 -132 6 -6 17 -22 23 -35 8 -14 19 -22 32 -20 11 1 39 -4 62 -12 63
-23 101 -10 188 60 89 72 173 169 237 270 34 56 215 234 302 299 74 56 126 84
188 104 20 7 37 16 37 21 0 24 61 75 126 105 41 19 73 40 72 47 -2 8 6 13 19
12 18 0 20 3 12 18 -5 10 -15 18 -21 18 -6 0 -9 3 -5 6 3 3 20 -1 38 -10 18
-9 38 -16 45 -16 25 0 76 -78 158 -245 92 -186 106 -227 111 -320 9 -186 -80
-369 -270 -557 -77 -77 -309 -248 -335 -248 -5 0 -10 -4 -10 -10 0 -5 -4 -10
-9 -10 -4 0 -40 -18 -80 -39 -39 -22 -71 -37 -71 -35 0 2 -10 -2 -22 -10 -22
-14 -183 -73 -223 -82 -136 -31 -174 -35 -196 -23 -13 7 -26 6 -40 -1 -22 -12
-59 -21 -59 -15 0 2 32 23 71 45 38 23 69 46 67 52 -2 5 -6 8 -8 7 -3 -1 -15
3 -27 9 -19 10 -31 6 -95 -37 -176 -118 -401 -202 -636 -237 -20 -3 -48 -8
-62 -10 -14 -3 -108 -7 -210 -10 -213 -4 -258 -8 -271 -21 -11 -11 44 -38 111
-53 43 -9 255 -6 330 4 19 3 65 8 102 10 37 3 93 12 125 20 32 8 90 20 128 26
39 6 81 13 95 15 27 5 36 6 205 30 61 9 121 18 135 20 14 2 45 7 70 10 25 3
52 7 60 10 14 4 28 7 98 20 82 16 199 51 290 87 78 30 128 59 205 116 56 41
104 78 107 82 3 3 45 42 95 86 49 43 127 116 173 162 83 82 101 111 182 297
36 84 67 233 64 311 -5 113 -88 312 -186 442 -59 79 -157 165 -173 152 -8 -7
-24 -5 -51 6 -35 15 -39 15 -51 -2 -7 -10 -13 -24 -13 -32 0 -7 -5 -10 -11 -7
-5 4 -36 -6 -67 -21 -53 -26 -211 -121 -222 -134 -3 -3 -21 -17 -40 -30 -57
-38 -196 -158 -264 -226 -100 -101 -167 -178 -162 -190 2 -6 -11 -31 -31 -53
-19 -23 -36 -53 -37 -66 0 -14 -4 -25 -7 -25 -3 0 -45 -38 -92 -85 -79 -78
-89 -85 -125 -85 -31 0 -43 5 -56 25 -31 47 -17 178 28 261 30 56 33 59 50 45
8 -7 32 -14 52 -17 21 -3 40 -6 42 -9 8 -8 -9 -23 -35 -30 -35 -8 -83 -43 -83
-59 0 -7 9 -21 20 -31 19 -17 19 -18 -19 -52 -44 -38 -56 -67 -35 -84 11 -9
14 -8 14 3 0 8 23 36 50 62 54 52 61 70 30 86 -11 6 -20 14 -20 18 0 8 49 32
65 32 6 0 26 11 44 24 l32 24 -27 21 c-15 12 -36 21 -48 21 -11 0 -28 5 -36
10 -12 8 -12 10 5 11 58 2 113 12 144 25 l36 15 -29 16 c-15 8 -40 17 -55 19
-57 11 -44 24 24 25 83 1 104 4 118 18 8 8 5 11 -8 12 -50 2 -87 1 -149 -5
-53 -6 -66 -5 -64 6 2 7 -3 12 -9 10 -7 -1 -13 2 -13 7 0 15 18 23 25 11 3 -5
33 -9 67 -9 39 1 56 4 47 10 -8 5 -24 9 -36 9 -13 0 -23 4 -23 10 0 5 39 9 93
8 97 -1 180 9 173 21 -3 4 -76 6 -163 5 l-158 -2 27 23 c24 21 36 23 88 20 63
-4 79 7 33 23 -20 6 -2 8 64 6 98 -4 135 2 111 17 -7 5 -57 9 -110 9 -54 0
-98 4 -98 8 0 17 43 54 50 43 10 -17 51 -22 67 -9 7 6 37 9 66 8 77 -3 98 -3
104 4 14 13 -10 18 -114 23 -59 3 -110 7 -112 9 -3 2 5 13 16 24 17 15 27 17
52 10 17 -5 63 -7 103 -6 104 4 112 5 106 11 -6 7 -30 11 -107 19 -67 8 -101
16 -101 25 0 3 7 14 14 24 15 19 42 22 81 7 37 -14 149 -24 181 -16 25 7 26
18 1 22 -7 1 -30 4 -52 8 -22 3 -58 9 -80 12 -22 4 -48 11 -59 16 -16 9 -17
12 -3 25 13 13 18 13 44 0 62 -33 256 -46 238 -16 -3 4 -13 5 -21 2 -11 -4
-15 0 -12 12 2 14 -9 22 -49 34 -37 11 -52 20 -50 31 1 10 -6 15 -25 15 -37
-1 -35 8 6 30 l35 19 51 -48 c70 -65 141 -94 201 -81 27 6 41 25 19 25 -6 0
-23 11 -38 25 l-27 26 26 -10 c53 -19 85 -20 97 0 10 15 8 19 -11 25 -12 4
-30 8 -39 9 -10 1 -21 5 -25 9 -5 4 17 7 47 5 55 -2 100 6 100 19 0 4 -39 8
-87 8 -149 0 -154 2 -257 114 l-40 42 -17 -21 -18 -22 -11 21 c-11 20 -29 27
-31 13z m97 -94 c19 -22 19 -22 -3 -10 -13 6 -23 16 -23 21 0 15 5 12 26 -11z
m-52 -170 c57 -21 42 -29 -26 -13 -94 21 -94 21 -69 43 22 19 23 19 41 1 10
-10 34 -24 54 -31z m-150 29 c-16 -26 -50 -60 -69 -70 -11 -6 0 10 25 36 44
46 58 56 44 34z m531 -168 c-3 -5 -12 -10 -18 -10 -7 0 -6 4 3 10 19 12 23 12
15 0z m-40 -20 c-3 -5 -10 -10 -15 -10 -11 0 -134 -76 -197 -122 -54 -41 -85
-53 -37 -16 16 13 42 34 57 48 34 30 166 108 185 109 7 1 10 -3 7 -9z m471
-158 c46 -101 24 -81 -36 33 -37 70 -39 76 -15 50 15 -16 38 -54 51 -83z
m-1228 -227 c13 1 25 -2 28 -7 3 -4 -3 -9 -13 -9 -10 -1 -27 -3 -38 -5 -11 -1
-34 -5 -52 -8 -18 -2 -42 -8 -54 -11 -13 -4 -19 -3 -16 2 4 6 11 22 16 36 10
25 11 25 58 13 26 -7 58 -12 71 -11z"/>
<path d="M1805 3039 c-53 -12 -115 -40 -115 -52 0 -5 10 -6 23 -3 12 4 27 8
32 10 73 21 125 39 129 45 6 10 -22 10 -69 0z"/>
<path d="M4636 3011 c-4 -6 9 -41 28 -79 72 -143 94 -246 75 -342 l-12 -55
-14 48 c-17 60 -38 61 -64 2 -17 -38 -33 -142 -31 -197 0 -10 -3 -18 -7 -18
-5 0 -9 24 -10 53 -2 89 -16 127 -47 127 -18 0 -18 -5 1 -34 10 -15 18 -56 20
-107 6 -107 13 -148 29 -171 12 -17 14 -17 26 11 6 17 13 84 14 153 2 118 13
168 36 168 6 0 10 -3 10 -7 4 -73 33 -153 56 -153 14 0 15 4 16 107 0 35 4 60
9 57 5 -3 9 -12 9 -19 0 -8 9 -19 20 -25 16 -9 20 -8 22 7 0 10 2 25 3 33 2
20 -11 60 -45 145 -16 39 -48 121 -72 184 -41 108 -58 135 -72 112z"/>
<path d="M1770 2958 c-59 -9 -122 -36 -128 -55 -2 -7 8 -15 23 -19 29 -7 46 3
26 15 -22 14 -2 20 113 36 56 8 86 16 86 24 0 9 -52 8 -120 -1z"/>
<path d="M3082 2898 c-64 -10 -152 -46 -152 -63 0 -23 13 -24 44 -1 17 13 43
26 57 30 45 10 103 19 132 19 15 0 27 4 27 8 0 12 -52 15 -108 7z"/>
<path d="M1898 2875 c-2 -2 -30 -5 -63 -8 -96 -9 -136 -17 -195 -34 -70 -21
-79 -29 -58 -49 19 -19 50 -12 42 9 -5 15 52 29 166 42 67 8 127 23 134 34 4
6 -19 12 -26 6z"/>
<path d="M700 2860 c0 -5 -15 -16 -34 -24 -79 -33 -191 -119 -215 -163 -18
-35 10 -30 37 7 23 30 105 94 154 119 15 8 42 27 60 42 25 21 29 28 16 29 -10
0 -18 -4 -18 -10z"/>
<path d="M3030 2788 c-41 -11 -79 -21 -85 -22 -50 -13 -101 -32 -107 -40 -4
-6 -2 -16 3 -22 13 -16 84 -28 101 -18 9 6 4 10 -16 14 -68 12 -20 37 124 65
34 6 120 36 120 41 0 10 -70 1 -140 -18z"/>
<path d="M1777 2764 c-1 -2 -18 -6 -36 -9 -48 -8 -146 -42 -208 -72 -59 -27
-70 -53 -23 -53 30 0 41 15 18 23 -27 8 206 79 342 104 47 8 34 14 -28 12 -34
-1 -63 -4 -65 -5z"/>
<path d="M665 2743 c-49 -20 -155 -90 -212 -141 -30 -26 -40 -41 -34 -51 5 -8
16 -11 31 -6 15 5 19 10 12 17 -14 14 44 62 148 124 44 25 85 53 91 60 14 17
14 17 -36 -3z"/>
<path d="M3067 2694 c-1 -1 -22 -5 -47 -9 -78 -11 -132 -32 -202 -79 -29 -19
-37 -45 -15 -47 52 -5 89 0 82 10 -3 6 -14 8 -25 6 -34 -6 -31 12 4 33 31 18
176 59 238 67 15 2 35 8 45 14 14 9 8 11 -30 9 -26 -1 -48 -3 -50 -4z"/>
<path d="M1845 2662 c-11 -1 -60 -12 -110 -23 -49 -12 -101 -23 -115 -25 -51
-9 -96 -27 -118 -47 -21 -20 -22 -22 -5 -28 27 -11 73 -10 73 1 0 6 -7 10 -16
10 -26 0 -5 19 34 30 38 11 201 45 261 55 51 9 69 21 40 26 -13 3 -33 3 -44 1z"/>
<path d="M647 2630 c-110 -55 -226 -147 -213 -169 9 -14 60 -8 106 13 l35 17
-55 -6 -55 -6 30 26 c17 14 64 46 105 70 86 52 115 73 109 79 -2 2 -30 -9 -62
-24z"/>
<path d="M3075 2563 c-11 -2 -67 -13 -124 -24 -57 -11 -111 -24 -120 -28 -9
-5 -42 -20 -73 -35 -32 -14 -58 -30 -58 -35 0 -24 34 -27 227 -17 112 6 98
-16 -32 -49 -74 -19 -116 -38 -139 -64 -17 -18 -16 -19 11 -25 15 -4 69 -4
120 -1 50 3 94 2 97 -3 3 -4 -21 -17 -52 -27 -69 -22 -138 -59 -145 -79 -10
-25 5 -26 33 -2 16 13 70 38 122 56 104 35 138 64 91 76 -31 8 -72 9 -165 2
-38 -3 -68 -2 -68 2 0 7 58 29 97 36 48 9 132 42 158 62 l25 20 -30 12 c-31
13 -65 14 -199 6 -47 -3 -89 -2 -94 1 -14 8 121 52 218 69 34 7 135 41 143 49
6 6 -12 5 -43 -2z"/>
<path d="M1830 2534 c-25 -8 -52 -18 -60 -21 -8 -3 -20 -7 -26 -8 -25 -6 -201
-70 -224 -82 -37 -19 -6 -16 104 12 110 28 238 79 257 101 14 17 6 17 -51 -2z"/>
<path d="M680 2507 c-48 -32 -110 -101 -110 -122 0 -7 11 -15 25 -17 26 -5 37
16 13 25 -8 3 0 15 22 33 74 61 113 101 104 106 -5 3 -29 -8 -54 -25z"/>
<path d="M4469 2449 c-7 -18 -5 -68 6 -154 5 -38 8 -87 7 -109 -1 -21 4 -48
10 -59 19 -36 29 4 33 136 2 67 7 135 10 151 5 25 4 28 -9 17 -9 -7 -15 -16
-14 -19 3 -25 -4 -62 -11 -62 -5 0 -7 17 -4 38 5 39 -19 90 -28 61z"/>
<path d="M329 2400 c-28 -17 -72 -88 -65 -107 6 -14 11 -11 29 19 12 20 32 50
45 67 24 31 20 38 -9 21z"/>
<path d="M372 2312 c-28 -27 -78 -110 -69 -118 6 -7 46 35 72 76 13 21 29 41
35 45 12 8 13 25 1 25 -5 0 -22 -12 -39 -28z"/>
<path d="M4347 2303 c-6 -27 -1 -192 7 -243 2 -14 4 -40 5 -57 1 -34 30 -49
32 -18 1 8 2 21 3 28 1 6 -2 23 -6 36 -5 13 -11 78 -13 144 -5 119 -17 166
-28 110z"/>
<path d="M450 2254 c-32 -20 -57 -54 -66 -89 -10 -38 5 -27 60 45 47 62 49 70
6 44z"/>
<path d="M4254 2070 c1 -93 5 -172 9 -176 16 -17 22 15 24 134 2 119 -10 212
-27 212 -4 0 -7 -76 -6 -170z"/>
<path d="M514 2191 c-17 -16 -43 -53 -58 -81 -23 -42 -26 -54 -15 -61 16 -10
18 -8 24 21 2 12 19 41 38 64 64 78 71 116 11 57z"/>
<path d="M4169 2190 c-1 -12 -10 -253 -11 -311 0 -39 5 -75 13 -90 14 -23 14
-22 19 26 10 105 5 354 -7 366 -7 7 -13 11 -14 9z"/>
<path d="M603 2111 c-35 -33 -93 -115 -93 -130 0 -17 25 -13 43 7 10 10 17 26
17 36 0 9 9 27 21 39 62 65 71 105 12 48z"/>
<path d="M693 2065 c-23 -16 -53 -68 -53 -92 0 -16 3 -16 46 2 40 16 56 12 53
-13 -3 -39 1 -44 27 -38 20 5 33 0 60 -24 41 -36 63 -31 35 9 -18 25 -44 42
-84 55 -10 3 -16 10 -13 15 4 5 3 16 0 25 -5 13 -14 15 -40 10 l-34 -6 15 36
c17 41 17 41 -12 21z"/>
<path d="M4054 2035 c-13 -67 -10 -198 5 -232 20 -48 35 -42 26 10 -7 45 -8
80 -4 167 2 30 -2 64 -8 75 -10 17 -12 15 -19 -20z"/>
<path d="M3521 2026 c-6 -7 -18 -36 -26 -64 -9 -28 -40 -99 -70 -158 -34 -66
-52 -111 -46 -117 15 -15 91 131 145 279 23 61 21 89 -3 60z"/>
<path d="M3969 1983 c-15 -77 -18 -151 -6 -191 19 -62 31 -29 33 89 0 63 2
119 4 124 5 18 0 35 -9 35 -5 0 -15 -26 -22 -57z"/>
<path d="M2180 1938 c-24 -46 -53 -96 -65 -113 -58 -78 -105 -205 -77 -205 22
0 62 20 62 31 0 6 -7 9 -15 6 -8 -4 -17 -2 -20 2 -7 12 56 131 132 253 34 53
59 99 55 102 -16 17 -33 -1 -72 -76z"/>
<path d="M3614 1985 c-38 -53 -104 -201 -104 -230 1 -21 42 43 86 132 47 97
58 155 18 98z"/>
<path d="M1089 1966 c-9 -17 -28 -54 -43 -82 -25 -49 -31 -74 -27 -119 1 -19
2 -19 12 -2 6 10 9 23 7 29 -3 7 11 42 30 78 44 84 52 104 44 117 -4 6 -14 -4
-23 -21z"/>
<path d="M1186 1910 c-21 -39 -39 -78 -41 -88 -2 -9 -4 -21 -5 -27 -4 -17 0
-69 4 -64 3 3 8 19 11 38 3 18 18 58 34 89 27 54 48 122 38 122 -2 0 -21 -32
-41 -70z"/>
<path d="M2045 1962 c-26 -22 -77 -119 -104 -200 -24 -72 -26 -89 -8 -95 24
-8 36 4 30 34 -7 34 14 88 69 180 43 73 49 111 13 81z"/>
<path d="M1889 1933 c-38 -58 -47 -78 -74 -151 -14 -37 -29 -76 -34 -87 -18
-40 -19 -53 -6 -59 10 -4 19 9 29 42 7 26 32 84 54 129 65 133 83 207 31 126z"/>
<path d="M2318 1953 c-34 -41 -162 -246 -173 -281 -16 -45 -12 -52 23 -46 29
5 70 39 59 50 -3 3 -13 -1 -22 -10 -20 -19 -37 -12 -28 12 3 9 37 61 75 115
79 115 113 177 94 177 -7 0 -20 -8 -28 -17z"/>
<path d="M2433 1955 c-13 -9 -41 -47 -63 -85 -22 -37 -51 -81 -64 -97 -24 -29
-52 -100 -43 -110 15 -14 81 24 131 77 31 32 58 55 60 51 3 -4 1 -13 -5 -21
-11 -19 -12 -67 0 -74 5 -4 12 8 16 26 4 18 27 63 51 99 24 36 44 71 44 77 0
24 -59 -18 -139 -98 -44 -44 -87 -80 -96 -80 -13 0 -15 4 -8 13 37 47 144 220
141 228 -2 5 -13 2 -25 -6z"/>
<path d="M1719 1937 c-9 -12 -21 -44 -28 -72 -6 -27 -28 -83 -47 -122 -37 -75
-41 -116 -13 -121 12 -2 16 4 14 20 -2 13 14 66 35 118 21 52 36 98 34 102 -3
5 3 20 14 36 11 15 17 34 13 44 -5 14 -8 13 -22 -5z"/>
<path d="M1296 1871 c-57 -98 -94 -182 -89 -198 8 -24 21 -13 28 24 3 20 28
71 55 112 41 66 72 141 57 141 -3 0 -26 -36 -51 -79z"/>
<path d="M3380 1918 c-11 -18 -29 -57 -40 -88 -12 -30 -34 -81 -49 -113 -28
-57 -26 -89 3 -45 22 34 106 215 111 238 2 11 7 25 10 30 3 6 1 10 -5 10 -5 0
-19 -14 -30 -32z"/>
<path d="M1435 1903 c-55 -56 -118 -220 -95 -248 20 -24 27 -17 25 23 -3 46
14 89 70 174 25 36 45 69 45 72 0 13 -19 4 -45 -21z"/>
<path d="M1581 1911 c-26 -26 -63 -106 -92 -195 -23 -70 -24 -86 -5 -86 10 0
31 58 27 77 0 1 23 48 50 104 52 106 59 139 20 100z"/>
<path d="M3869 1903 c-23 -58 -19 -178 5 -170 13 4 26 197 13 197 -4 0 -12
-12 -18 -27z"/>
<path d="M3243 1898 c-11 -15 -43 -83 -43 -92 0 -9 -58 -137 -81 -179 -11 -21
-18 -41 -15 -44 17 -17 116 166 140 261 16 61 16 76 -1 54z"/>
<path d="M587 1828 c-5 -18 -8 -19 -21 -8 -19 15 -18 16 -21 -38 -2 -35 2 -45
19 -54 12 -6 23 -14 26 -18 16 -21 372 -169 425 -176 11 -1 74 -20 140 -42
112 -37 256 -73 350 -86 23 -4 52 -9 65 -11 103 -21 465 -21 573 1 12 2 51 7
87 10 36 4 76 7 90 9 25 2 151 18 160 20 16 3 50 32 50 42 0 14 -3 15 -65 18
-69 3 -71 5 -27 25 23 10 42 24 42 30 0 15 -4 25 -10 23 -3 0 -30 -4 -60 -7
-30 -3 -66 -8 -80 -10 -14 -3 -41 -7 -60 -10 -19 -3 -44 -7 -55 -10 -11 -2
-42 -7 -70 -10 -27 -4 -80 -11 -116 -16 -193 -27 -470 -30 -582 -5 -12 2 -38
7 -57 10 -240 35 -582 174 -737 301 -48 40 -59 42 -66 12z"/>
<path d="M3073 1813 c-20 -58 -78 -194 -98 -230 -13 -24 -20 -45 -15 -48 24
-15 140 214 140 277 0 23 -19 24 -27 1z"/>
<path d="M2946 1798 c-3 -7 -7 -33 -11 -58 -3 -25 -28 -89 -55 -142 -28 -54
-46 -98 -42 -98 24 0 94 109 111 175 16 61 22 135 10 135 -5 0 -11 -6 -13 -12z"/>
<path d="M2829 1757 c-22 -17 -45 -63 -62 -130 -16 -59 -10 -73 15 -34 16 24
70 168 66 173 -2 1 -10 -3 -19 -9z"/>
<path d="M2674 1662 c-18 -38 -35 -85 -38 -103 l-7 -34 26 30 c30 36 58 114
53 151 -2 22 -8 15 -34 -44z"/>
</g>
</svg>
