<?xml version="1.0" standalone="no"?>
<!DOCTYPE svg PUBLIC "-//W3C//DTD SVG 20010904//EN"
 "http://www.w3.org/TR/2001/REC-SVG-20010904/DTD/svg10.dtd">
<svg version="1.0" xmlns="http://www.w3.org/2000/svg"
 width="512.000000pt" height="512.000000pt" viewBox="0 0 512.000000 512.000000"
 preserveAspectRatio="xMidYMid meet">
<metadata>
Created by potrace 1.11, written by Peter Selinger 2001-2013
</metadata>
<g transform="translate(0.000000,512.000000) scale(0.100000,-0.100000)"
fill="#000000" stroke="none">
<path d="M2657 3782 c-16 -3 -17 -90 -17 -1220 l0 -1217 173 0 172 0 5 1040 5
1040 284 0 c166 0 312 -5 351 -11 80 -14 176 -62 226 -113 195 -199 140 -554
-103 -672 -89 -43 -136 -49 -390 -49 l-243 0 0 -84 c0 -78 2 -86 31 -122 17
-21 34 -41 38 -44 3 -3 22 -25 41 -50 19 -25 40 -49 46 -55 6 -5 53 -62 105
-125 51 -63 96 -117 99 -120 3 -3 50 -59 105 -125 116 -140 136 -164 150 -179
6 -6 53 -63 105 -126 52 -63 97 -117 100 -120 3 -3 20 -23 38 -45 l32 -40 230
0 c203 0 227 1 217 15 -17 21 -111 134 -117 140 -3 3 -24 28 -45 55 -22 28
-47 57 -55 65 -9 8 -125 146 -260 305 -134 160 -252 300 -262 311 l-19 22 70
17 c118 29 244 96 332 177 271 252 306 720 76 1028 -134 179 -318 276 -562
296 -74 6 -929 11 -958 6z"/>
<path d="M643 3603 l2 -178 360 -1 c198 -1 365 -2 370 -3 7 -1 10 -356 10
-1045 l-1 -1043 178 0 177 1 1 966 c0 531 0 1001 0 1045 l0 80 368 0 367 0 0
178 1 177 -917 0 -917 0 1 -177z"/>
</g>
</svg>
